<svg height='100px' width='100px'  fill="#ffffff" xmlns="http://www.w3.org/2000/svg" xmlns:xlink="http://www.w3.org/1999/xlink" version="1.1" x="0px" y="0px" viewBox="0 0 70 70" style="enable-background:new 0 0 70 70;" xml:space="preserve"><g><g><path d="M35,68C16.8037109,68,2,53.1962891,2,35S16.8037109,2,35,2s33,14.8037109,33,33S53.1962891,68,35,68z M35,4    C17.9067383,4,4,17.9067383,4,35s13.9067383,31,31,31s31-13.9067383,31-31S52.0932617,4,35,4z"></path></g><g><g><g><path d="M44.3647461,28.8974609c-0.5522575,0-1-0.4477539-1-1v-6.125c0-0.5522461,0.4477425-1,1-1c0.5522461,0,1,0.4477539,1,1      v6.125C45.3647461,28.449707,44.9169922,28.8974609,44.3647461,28.8974609z"></path></g><g><path d="M22.3647461,28.8974609c-0.5522575,0-1-0.4477539-1-1v-6.125c0-0.5522461,0.4477425-1,1-1c0.5522461,0,1,0.4477539,1,1      v6.125C23.3647461,28.449707,22.9169922,28.8974609,22.3647461,28.8974609z"></path></g></g><g><path d="M33.9702148,54.0917969c-0.1225586,0-0.2475586-0.0229492-0.3686523-0.0712891     c-0.5131836-0.2036133-0.7641602-0.7851562-0.5600586-1.2983398c0.0424805-0.105957,4.3300781-10.5571289,14.9267578-6.8164062     c0.5205078,0.1835938,0.7939453,0.7548828,0.6098633,1.2758789c-0.1835938,0.5209961-0.7524414,0.7944336-1.2758789,0.6098633     c-8.796875-3.1074219-12.2587891,5.3095703-12.4023438,5.6689453     C34.7441406,53.8525391,34.3681641,54.0917969,33.9702148,54.0917969z"></path></g></g></g></svg>