<svg height='100px' width='100px'  fill="#ffffff" xmlns="http://www.w3.org/2000/svg" xmlns:xlink="http://www.w3.org/1999/xlink" version="1.1" x="0px" y="0px" viewBox="0 0 70 70" style="enable-background:new 0 0 70 70;" xml:space="preserve"><g><g><path d="M35,68C16.8037109,68,2,53.1962891,2,35S16.8037109,2,35,2s33,14.8037109,33,33S53.1962891,68,35,68z M35,4    C17.9067383,4,4,17.9067383,4,35s13.9067383,31,31,31s31-13.9067383,31-31S52.0932617,4,35,4z"></path></g><g><g><g><path d="M35,61.1254883c-10.1494141,0-18.40625-7.4213867-18.40625-16.5439453c0-0.5522461,0.4477539-1,1-1h34.8125      c0.5522461,0,1,0.4477539,1,1C53.40625,53.7041016,45.1494141,61.1254883,35,61.1254883z M18.6323242,45.581543      C19.2138672,53.1362305,26.3330078,59.1254883,35,59.1254883s15.7861328-5.9892578,16.3676758-13.5439453H18.6323242z"></path></g><g><path d="M39.1264648,60.5126953c-0.3476562,0-0.6850586-0.1811523-0.8696289-0.5043945      c-0.5390625-0.9453125-0.8242188-2.0244141-0.8242188-3.1210938c0-3.5019531,2.8491211-6.3510742,6.3510742-6.3510742      c2.199707,0,4.2060547,1.1079102,5.3671875,2.9643555c0.2929688,0.4682617,0.1508789,1.0849609-0.3173828,1.3779297      c-0.4667969,0.2924805-1.0854492,0.1508789-1.3779297-0.3173828c-0.793457-1.2680664-2.1660156-2.0249023-3.671875-2.0249023      c-2.3994141,0-4.3510742,1.9516602-4.3510742,4.3510742c0,0.7495117,0.1943359,1.4858398,0.5615234,2.1298828      c0.2734375,0.4799805,0.1064453,1.090332-0.3730469,1.3642578      C39.4648438,60.4707031,39.2944336,60.5126953,39.1264648,60.5126953z"></path></g></g><g><g><g><g><path d="M47.918457,32.3041992c-2.940918,0-5.3334961-2.3925781-5.3334961-5.3334961s2.3925781-5.3334961,5.3334961-5.3334961        s5.3334961,2.3925781,5.3334961,5.3334961S50.859375,32.3041992,47.918457,32.3041992z M47.918457,23.637207        c-1.8378906,0-3.3334961,1.4956055-3.3334961,3.3334961s1.4956055,3.3334961,3.3334961,3.3334961        s3.3334961-1.4956055,3.3334961-3.3334961S49.7563477,23.637207,47.918457,23.637207z"></path></g><g><path d="M22.081543,32.2866211c-2.940918,0-5.3334961-2.3925781-5.3334961-5.3330078        c0-2.940918,2.3925781-5.3334961,5.3334961-5.3334961s5.3334961,2.3925781,5.3334961,5.3334961        C27.4150391,29.894043,25.0224609,32.2866211,22.081543,32.2866211z M22.081543,23.6201172        c-1.8378906,0-3.3334961,1.4956055-3.3334961,3.3334961s1.4956055,3.3330078,3.3334961,3.3330078        s3.3334961-1.4951172,3.3334961-3.3330078S23.9194336,23.6201172,22.081543,23.6201172z"></path></g></g><g><g><path d="M50.6791992,29.9526367c-0.625-0.9208984-1.6572266-1.4711914-2.762207-1.4711914        s-2.137207,0.550293-2.762207,1.4711914l-1.6552734-1.1220703c0.9975586-1.4711914,2.6489258-2.3491211,4.4174805-2.3491211        s3.4199219,0.8779297,4.4174805,2.3491211L50.6791992,29.9526367z"></path></g><g><path d="M19.3144531,29.9428711l-1.6552734-1.1230469c0.9980469-1.4702148,2.6494141-2.3481445,4.4179688-2.3481445        c1.7749023,0,3.4301758,0.8779297,4.4272461,2.3486328l-1.6552734,1.1220703        c-0.6245117-0.9208984-1.6606445-1.4707031-2.7719727-1.4707031        C20.972168,28.4716797,19.9394531,29.0214844,19.3144531,29.9428711z"></path></g></g></g><g><g><path d="M52.5571289,20.9570312c-0.246582,0-0.4936523-0.090332-0.6865234-0.2729492       c-2.0917969-1.9750977-3.9858398-2.9121094-5.4873047-2.6992188c-1.3574219,0.1904297-2.0078125,1.2636719-2.0351562,1.309082       c-0.2788086,0.4716797-0.8891602,0.6347656-1.3642578,0.3598633c-0.4741211-0.2749023-0.6416016-0.8764648-0.3710938-1.3535156       c0.0449219-0.0791016,1.1230469-1.9399414,3.4443359-2.2890625c2.1606445-0.3261719,4.5810547,0.7573242,7.1865234,3.21875       c0.4018555,0.3793945,0.4194336,1.012207,0.0405273,1.4135742       C53.0874023,20.8520508,52.8222656,20.9570312,52.5571289,20.9570312z"></path></g><g><path d="M17.4428711,20.9570312c-0.2651367,0-0.5302734-0.1049805-0.7270508-0.3134766       c-0.3789062-0.4013672-0.3613281-1.0341797,0.0405273-1.4135742c2.6049805-2.4609375,5.0200195-3.5439453,7.1865234-3.21875       c2.3212891,0.3491211,3.3994141,2.2099609,3.4443359,2.2890625c0.2719727,0.4804688,0.1035156,1.0908203-0.3774414,1.362793       c-0.4765625,0.2719727-1.0839844,0.1044922-1.3588867-0.3701172c-0.0351562-0.0595703-0.6860352-1.1191406-2.0341797-1.3081055       c-1.5014648-0.2128906-3.3955078,0.7236328-5.4873047,2.6992188       C17.9365234,20.8666992,17.6894531,20.9570312,17.4428711,20.9570312z"></path></g></g></g></g></g></svg>