<svg height='100px' width='100px'  fill="#ffffff" xmlns="http://www.w3.org/2000/svg" xmlns:xlink="http://www.w3.org/1999/xlink" version="1.1" x="0px" y="0px" viewBox="0 0 70 70" style="enable-background:new 0 0 70 70;" xml:space="preserve"><g><g><path d="M35,68C16.8037109,68,2,53.1962891,2,35S16.8037109,2,35,2s33,14.8037109,33,33S53.1962891,68,35,68z M35,4    C17.9067383,4,4,17.9064941,4,35s13.9067383,31,31,31s31-13.9064941,31-31S52.0932617,4,35,4z"></path></g><g><g><g><g><path d="M22.699707,34.7861328c-2.9907227,0-5.3334961-3.3129883-5.3334961-7.5422363       c0-4.2294922,2.3427734-7.5427246,5.3334961-7.5427246c2.9902344,0,5.3330078,3.3132324,5.3330078,7.5427246       C28.0327148,31.4731445,25.6899414,34.7861328,22.699707,34.7861328z M22.699707,21.7011719       c-1.8071289,0-3.3334961,2.5383301-3.3334961,5.5427246c0,3.0041504,1.5263672,5.5422363,3.3334961,5.5422363       c1.8066406,0,3.3330078-2.5380859,3.3330078-5.5422363C26.0327148,24.239502,24.5063477,21.7011719,22.699707,21.7011719z"></path></g><g><path d="M19.0170898,31.6699219c-0.1235352,0-0.2495117-0.0231934-0.371582-0.0720215       c-0.5126953-0.2055664-0.7617188-0.7878418-0.5561523-1.3005371c0.9272461-2.3117676,2.6928711-3.7478027,4.6083984-3.7478027       c1.9375,0,3.6635742,1.3994141,4.6162109,3.7434082c0.2080078,0.5117188-0.0380859,1.0952148-0.5498047,1.3029785       c-0.5112305,0.208252-1.0952148-0.0383301-1.3027344-0.5495605c-0.6259766-1.5400391-1.6850586-2.4968262-2.7636719-2.4968262       c-1.0810547,0-2.1352539,0.9550781-2.7519531,2.4924316C19.7890625,31.432373,19.4135742,31.6699219,19.0170898,31.6699219z"></path></g></g><g><g><path d="M47.300293,34.8125c-2.9902344,0-5.3330078-3.3129883-5.3330078-7.5424805s2.3427734-7.5424805,5.3330078-7.5424805       c2.9907227,0,5.3334961,3.3129883,5.3334961,7.5424805S50.2910156,34.8125,47.300293,34.8125z M47.300293,21.7275391       c-1.8066406,0-3.3330078,2.5380859-3.3330078,5.5424805S45.4936523,32.8125,47.300293,32.8125       c1.8071289,0,3.3334961-2.5380859,3.3334961-5.5424805S49.1074219,21.7275391,47.300293,21.7275391z"></path></g><g><path d="M43.6181641,31.6960449c-0.1235352,0-0.2495117-0.0231934-0.371582-0.0720215       c-0.5126953-0.2055664-0.7617188-0.7878418-0.5561523-1.3005371c0.9272461-2.3117676,2.6928711-3.7478027,4.6083984-3.7478027       c1.9375,0,3.6635742,1.3994141,4.6162109,3.7434082c0.2080078,0.5117188-0.0380859,1.0952148-0.5498047,1.3029785       c-0.5107422,0.2084961-1.0952148-0.0380859-1.3027344-0.5495605c-0.6259766-1.5400391-1.6850586-2.4968262-2.7636719-2.4968262       c-1.0810547,0-2.1352539,0.9550781-2.7519531,2.4924316C44.3901367,31.4584961,44.0146484,31.6960449,43.6181641,31.6960449z"></path></g></g></g><g><path d="M35,58.1508789c-9.7348633,0-14.9648438-5.6501465-16.4853516-10.4885254     c-0.0952148-0.3037109-0.0405273-0.6347656,0.1479492-0.8916016c0.1884766-0.2565918,0.487793-0.4082031,0.8061523-0.4082031     h31.0625c0.3173828,0,0.6162109,0.1508789,0.8046875,0.4064941s0.2446289,0.5856934,0.1503906,0.8891602     C49.9892578,52.4985352,44.7724609,58.1508789,35,58.1508789z M20.9296875,48.3625488     C22.7231445,52.2036133,27.2314453,56.1508789,35,56.1508789c7.7998047,0,12.3017578-3.947998,14.0766602-7.7883301H20.9296875z"></path></g></g></g></svg>