<svg height='100px' width='100px'  fill="#ffffff" xmlns="http://www.w3.org/2000/svg" xmlns:xlink="http://www.w3.org/1999/xlink" version="1.1" x="0px" y="0px" viewBox="0 0 70 70" style="enable-background:new 0 0 70 70;" xml:space="preserve"><g><g><path d="M35,68C16.8037109,68,2,53.1962891,2,35S16.8037109,2,35,2s33,14.8037109,33,33S53.1962891,68,35,68z M35,4    C17.9067383,4,4,17.9067383,4,35s13.9067383,31,31,31s31-13.9067383,31-31S52.0932617,4,35,4z"></path></g><g><g><g><path d="M44.6982422,28.9350586c-0.5522461,0-1-0.4477539-1-1v-5.3334961c0-0.5522461,0.4477539-1,1-1s1,0.4477539,1,1      v5.3334961C45.6982422,28.4873047,45.2504883,28.9350586,44.6982422,28.9350586z"></path></g><g><path d="M26.0517578,28.9350586c-0.5522461,0-1-0.4477539-1-1v-5.3334961c0-0.5522461,0.4477539-1,1-1s1,0.4477539,1,1      v5.3334961C27.0517578,28.4873047,26.6040039,28.9350586,26.0517578,28.9350586z"></path></g></g><g><path d="M49.5415039,48.3984375H20.4584961c-0.5522461,0-1-0.4477539-1-1s0.4477539-1,1-1h29.0830078     c0.5522461,0,1,0.4477539,1,1S50.09375,48.3984375,49.5415039,48.3984375z"></path></g></g></g></svg>