<svg height='100px' width='100px'  fill="#ffffff" xmlns="http://www.w3.org/2000/svg" xmlns:xlink="http://www.w3.org/1999/xlink" version="1.1" x="0px" y="0px" viewBox="0 0 70 70" style="enable-background:new 0 0 70 70;" xml:space="preserve"><g><g><path d="M35,68C16.8037109,68,2,53.1962891,2,35S16.8037109,2,35,2s33,14.8037109,33,33S53.1962891,68,35,68z M35,4    C17.9067383,4,4,17.9067383,4,35s13.9067383,31,31,31s31-13.9067383,31-31S52.0932617,4,35,4z"></path></g><g><g><g><g><path d="M47.2470703,24.4609375c-3.0458984,0-5.2978516-0.5844727-6.7319336-1.7524414       c-1.4584961-1.1875-1.5004883-2.5454102-1.5004883-2.6962891c0-0.5522461,0.4477539-1,1-1       c0.5429688,0,0.9848633,0.4331055,0.9995117,0.9726562c0.0053711,0.059082,0.0761719,0.6533203,0.8505859,1.2412109       c1.1640625,0.8833008,4.4072266,2.0981445,13.0727501,0.3066406c0.538578-0.1137695,1.069828,0.2368164,1.1816444,0.7773438       c0.1113281,0.5405273-0.2363281,1.0698242-0.7773438,1.1816406       C52.2133789,24.1381836,49.5107422,24.4609375,47.2470703,24.4609375z M41.0146484,20.012207h0.0097656H41.0146484z"></path></g><g><path d="M47.5791016,33.887207c-3.6938477,0-6.6987305-3.0009766-6.6987305-6.6899414       c0-1.7841797,0.6918945-3.4584961,1.9482422-4.7148438c0.390625-0.390625,1.0234375-0.390625,1.4140625,0       s0.390625,1.0234375,0,1.4140625c-0.878418,0.878418-1.3623047,2.0507812-1.3623047,3.3007812       c0,2.5859375,2.1079102,4.6899414,4.6987305,4.6899414c2.5859375,0,4.6894531-2.1040039,4.6894531-4.6899414       c0-1.2041016-0.4521484-2.3452148-1.2734375-3.2128906c-0.3798828-0.4013672-0.3623047-1.0341797,0.0385742-1.4135742       c0.4013672-0.3793945,1.034668-0.3618164,1.4135742,0.0385742c1.1743164,1.2407227,1.8212891,2.8701172,1.8212891,4.5878906       C54.2685547,30.8862305,51.2675781,33.887207,47.5791016,33.887207z"></path></g><g><path d="M48.1782227,33.8173828c-0.3999023,0-0.777832-0.2421875-0.9316406-0.6376953       c-1.0288086-2.6401367,0.1645508-5.6806641,2.7167969-6.9223633c1.078125-0.5249023,2.262207-0.6845703,3.4238281-0.4638672       c0.5424805,0.1035156,0.8984375,0.6274414,0.7949219,1.1699219c-0.1030273,0.5419922-0.6254883,0.8945312-1.1699219,0.7949219       c-0.7324219-0.1386719-1.4853516-0.0371094-2.1738281,0.2978516c-1.6225586,0.7890625-2.3818359,2.7207031-1.7285156,4.3979492       c0.2006836,0.5146484-0.0541992,1.0942383-0.5688477,1.2944336       C48.421875,33.7949219,48.2993164,33.8173828,48.1782227,33.8173828z"></path></g></g><g><g><path d="M22.7529297,25.5019531c-2.2636719,0-4.9658203-0.3227539-8.0947266-0.9692383       c-0.5410156-0.1118164-0.8886719-0.6411133-0.7773438-1.1816406c0.1118164-0.5405273,0.6435547-0.8901367,1.1816378-0.7773438       c8.8139677,1.8217773,12.0283232,0.5463867,13.1591825-0.3745117c0.706543-0.5756836,0.7636719-1.140625,0.7636719-1.1459961       c0-0.5522461,0.4477539-1,1-1s1,0.4477539,1,1c0,0.1508789-0.0419922,1.5087891-1.5004883,2.6962891       C28.0512695,24.9174805,25.7983398,25.5019531,22.7529297,25.5019531z"></path></g><g><path d="M22.4248047,34.9282227c-3.6938477,0-6.6987305-3.0009766-6.6987305-6.6894531       c0-1.7841797,0.6918945-3.4584961,1.9482422-4.7148438c0.390625-0.390625,1.0234375-0.390625,1.4140625,0       s0.390625,1.0234375,0,1.4140625c-0.878418,0.878418-1.3623047,2.0507812-1.3623047,3.3007812       c0,2.5859375,2.1079102,4.6894531,4.6987305,4.6894531c2.5859375,0,4.6899414-2.1035156,4.6899414-4.6894531       c0-1.2041016-0.4526367-2.3452148-1.2739258-3.2133789c-0.3798828-0.4013672-0.3623047-1.0341797,0.0385742-1.4135742       c0.4013672-0.3793945,1.034668-0.3618164,1.4135742,0.0385742c1.1748047,1.2412109,1.8217773,2.8706055,1.8217773,4.5883789       C29.1147461,31.9272461,26.1137695,34.9282227,22.4248047,34.9282227z"></path></g><g><path d="M22.0073242,34.5429688c-0.4541016,0-0.8652344-0.3115234-0.9726562-0.7729492       c-0.6791992-2.9125977,1.0209961-5.9038086,3.8710938-6.8100586c1.1401367-0.3681641,2.3491211-0.3774414,3.4902344-0.0214844       c0.5273438,0.1640625,0.8217773,0.7246094,0.6572266,1.2519531c-0.1640625,0.5273438-0.7255859,0.8227539-1.2519531,0.6572266       c-0.7436523-0.230957-1.534668-0.2255859-2.2851562,0.0170898c-1.8666992,0.5932617-2.9775391,2.5478516-2.5341797,4.4511719       c0.1254883,0.5375977-0.2084961,1.0756836-0.746582,1.2011719       C22.1591797,34.534668,22.0825195,34.5429688,22.0073242,34.5429688z"></path></g></g></g><g><path d="M36.0673828,58.6157227c-4.3852539,0-8.7832031-0.6567383-13.1621094-1.9692383     c-0.9770508-0.3374023-2.394043-0.8271484-2.394043-2.3740234v-5.7490234c0-1.3164062,1.1665039-2.3774414,2.6557617-2.4155273     c0.0825195-0.0053711,0.1650391,0.0058594,0.2456055,0.0239258c7.6831055,1.7333984,15.4282227,1.5371094,23.0180664-0.5844727     c0.0791016-0.0224609,0.1611328-0.034668,0.2436523-0.0366211c0.8061523-0.0297852,1.5717773,0.2680664,2.1083984,0.7905273     c0.4550781,0.4438477,0.7060547,1.0214844,0.7060547,1.6254883v6.9423828c0,1.7011719-1.7724609,2.1782227-2.5292969,2.3823242     C43.3520508,58.1611328,39.7138672,58.6157227,36.0673828,58.6157227z M23.1132812,48.1147461     c-0.3706055,0.043457-0.6020508,0.2597656-0.6020508,0.4086914v5.7490234     c0.0668945,0.1069336,0.4086914,0.2636719,1.0078125,0.4707031c7.6303711,2.2871094,15.3608398,2.4829102,22.9360352,0.5727539     c0.8696289-0.2338867,1.0166016-0.4072266,1.0371094-0.4394531l-0.003418-6.949707     c0-0.0771484-0.0556641-0.1479492-0.1025391-0.1933594c-0.1303711-0.1269531-0.3330078-0.206543-0.5566406-0.2211914     C39.0068359,49.6738281,31.0292969,49.8774414,23.1132812,48.1147461z"></path></g></g></g></svg>