<svg height='100px' width='100px'  fill="#ffffff" xmlns="http://www.w3.org/2000/svg" xmlns:xlink="http://www.w3.org/1999/xlink" version="1.1" x="0px" y="0px" viewBox="0 0 70 70" style="enable-background:new 0 0 70 70;" xml:space="preserve"><g><g><path d="M35,68C16.8037109,68,2,53.1962891,2,35S16.8037109,2,35,2s33,14.8037109,33,33S53.1962891,68,35,68z M35,4    C17.90625,4,4,17.9067383,4,35s13.90625,31,31,31s31-13.9067383,31-31S52.09375,4,35,4z"></path></g><g><g><g><path d="M46.9804688,28.0776367c-2.7568359,0-5-1.9257812-5-4.2929688c0-0.5522461,0.4472656-1,1-1s1,0.4477539,1,1      c0,1.2641602,1.3457031,2.2929688,3,2.2929688s3-1.0288086,3-2.2929688c0-0.5522461,0.4472656-1,1-1s1,0.4477539,1,1      C51.9804688,26.1518555,49.7373047,28.0776367,46.9804688,28.0776367z"></path></g><g><path d="M24.3105469,28.0776367c-2.7568359,0-5-1.9257812-5-4.2929688c0-0.5522461,0.4472656-1,1-1s1,0.4477539,1,1      c0,1.2641602,1.3457031,2.2929688,3,2.2929688s3-1.0288086,3-2.2929688c0-0.5522461,0.4472656-1,1-1s1,0.4477539,1,1      C29.3105469,26.1518555,27.0673828,28.0776367,24.3105469,28.0776367z"></path></g></g><g><g><path d="M41.4804688,52.0986328c-3.2070312,0-5.8164062-2.6088867-5.8164062-5.815918s2.609375-5.8164062,5.8164062-5.8164062      c3.207016,0,5.8154297,2.609375,5.8154297,5.8164062S44.6874847,52.0986328,41.4804688,52.0986328z M41.4804688,42.4663086      c-2.1044922,0-3.8164062,1.7119141-3.8164062,3.8164062c0,2.1040039,1.7119141,3.815918,3.8164062,3.815918      c2.1035156,0,3.8154297-1.7119141,3.8154297-3.815918C45.2958984,44.1782227,43.5839844,42.4663086,41.4804688,42.4663086z"></path></g><g><path d="M53.4316406,44.7407227h-3.8466797c-0.3896484,0-0.7431641-0.2260742-0.9072266-0.5791016      s-0.1074219-0.7695312,0.1435547-1.0664062l2.4550781-2.9033203h-1.6914062c-0.5527344,0-1-0.4477539-1-1s0.4472656-1,1-1      h3.8466797c0.3896484,0,0.7431641,0.2260742,0.9072266,0.5791016s0.1074219,0.7695312-0.1435547,1.0664062l-2.4550781,2.9033203      h1.6914062c0.5527344,0,1,0.4477539,1,1S53.984375,44.7407227,53.4316406,44.7407227z"></path></g><g><path d="M61.4560547,38.1401367h-4.6738281c-0.3896484,0-0.7431641-0.2260742-0.9072266-0.5791016      s-0.1074219-0.7695312,0.1435547-1.0664062l3.2822266-3.8813477h-2.5185547c-0.5527344,0-1-0.4477539-1-1s0.4472656-1,1-1      h4.6738281c0.3896484,0,0.7431641,0.2260742,0.9072266,0.5791016s0.1074219,0.7695312-0.1435547,1.0664062l-3.2822418,3.8813477      h2.5185699c0.5527344,0,1,0.4477539,1,1S62.0087891,38.1401367,61.4560547,38.1401367z"></path></g></g></g></g></svg>