<?xml version="1.0" encoding="UTF-8" standalone="no"?>
<!-- Generator: Adobe Illustrator 19.0.0, SVG Export Plug-In . SVG Version: 6.00 Build 0)  -->

<svg
   version="1.1"
   id="Capa_1"
   x="0px"
   y="0px"
   viewBox="0 0 512 512"
   style="enable-background:new 0 0 512 512;"
   xml:space="preserve"
   sodipodi:docname="socrates.svg"
   inkscape:version="1.1 (c4e8f9e, 2021-05-24)"
   xmlns:inkscape="http://www.inkscape.org/namespaces/inkscape"
   xmlns:sodipodi="http://sodipodi.sourceforge.net/DTD/sodipodi-0.dtd"
   xmlns="http://www.w3.org/2000/svg"
   xmlns:svg="http://www.w3.org/2000/svg"><defs
   id="defs96" /><sodipodi:namedview
   id="namedview94"
   pagecolor="#505050"
   bordercolor="#eeeeee"
   borderopacity="1"
   inkscape:pageshadow="0"
   inkscape:pageopacity="0"
   inkscape:pagecheckerboard="0"
   showgrid="false"
   inkscape:zoom="1.4121094"
   inkscape:cx="116.49239"
   inkscape:cy="256"
   inkscape:window-width="1680"
   inkscape:window-height="945"
   inkscape:window-x="0"
   inkscape:window-y="25"
   inkscape:window-maximized="1"
   inkscape:current-layer="Capa_1" />
<g
   id="g13">
	<g
   id="g11">
		<path
   d="M232.868,160.807c-7.198-8.951-17.908-14.085-29.384-14.085c-11.474,0-22.182,5.132-29.38,14.08    c-2.598,3.229-2.087,7.95,1.141,10.546c3.228,2.596,7.949,2.085,10.545-1.143c4.336-5.391,10.785-8.482,17.693-8.482    c6.909,0,13.359,3.092,17.695,8.484c2.569,3.194,7.359,3.707,10.545,1.145C234.951,168.756,235.464,164.035,232.868,160.807z"
   id="path9" />
	</g>
</g>
<g
   id="g19">
	<g
   id="g17">
		<circle
   cx="203.49"
   cy="189.56"
   r="14.15"
   id="circle15" />
	</g>
</g>
<g
   id="g25">
	<g
   id="g23">
		<path
   d="M337.897,160.803c-7.198-8.948-17.907-14.081-29.381-14.081c-11.476,0.001-22.186,5.135-29.385,14.086    c-2.596,3.228-2.083,7.949,1.145,10.545c3.191,2.565,7.974,2.05,10.545-1.145c4.336-5.392,10.786-8.485,17.695-8.485    c6.908,0,13.356,3.092,17.692,8.482c2.597,3.228,7.317,3.74,10.545,1.143C339.981,168.752,340.493,164.031,337.897,160.803z"
   id="path21" />
	</g>
</g>
<g
   id="g31">
	<g
   id="g29">
		<circle
   cx="308.51"
   cy="189.56"
   r="14.15"
   id="circle27" />
	</g>
</g>
<g
   id="g37">
	<g
   id="g35">
		<path
   d="M314.317,288.743c-5.655-11.162-16.946-18.096-29.467-18.096c-5.14,0-10.293,1.235-14.902,3.571    c-0.866,0.438-5.769,2.075-13.946,2.075c-8.179,0-13.08-1.636-13.944-2.075c-4.611-2.337-9.766-3.573-14.908-3.573    c-12.517,0-23.807,6.931-29.465,18.089c-8.231,16.236-1.719,36.141,14.516,44.373c11.716,5.94,27.271,9.211,43.8,9.211    c16.524,0,32.076-3.27,43.791-9.206C316.029,324.884,322.544,304.98,314.317,288.743z M293.012,319.732    c-9.653,4.892-22.797,7.586-37.01,7.586c-14.217,0-27.364-2.695-37.018-7.589c-8.859-4.492-12.411-15.354-7.92-24.212    c3.087-6.089,9.251-9.872,16.086-9.872c2.836,0,5.57,0.657,8.126,1.953c3.525,1.786,10.82,3.695,20.726,3.695    c9.903,0,17.199-1.908,20.726-3.695c2.555-1.295,5.288-1.951,8.123-1.951c6.836,0,13,3.784,16.086,9.876    C305.426,304.382,301.871,315.242,293.012,319.732z"
   id="path33" />
	</g>
</g>
<g
   id="g43">
	<g
   id="g41">
		<path
   d="M286.403,303.061c-1.176-3.972-5.35-6.239-9.321-5.062c-6.155,1.823-13.445,2.786-21.081,2.786    c-7.606,0-14.872-0.957-21.014-2.766c-3.973-1.17-8.143,1.101-9.314,5.074c-1.17,3.973,1.101,8.143,5.075,9.314    c7.5,2.21,16.232,3.378,25.253,3.378c9.058,0,17.821-1.177,25.34-3.403C285.313,311.206,287.579,307.033,286.403,303.061z"
   id="path39" />
	</g>
</g>
<g
   id="g49">
	<g
   id="g47">
		<path
   d="M323.182,105.172c-1.473-3.871-5.805-5.815-9.677-4.342c-18.157,6.91-46.264,7.656-57.506,7.656    s-39.35-0.746-57.506-7.657c-3.87-1.473-8.204,0.47-9.677,4.342c-1.474,3.871,0.47,8.204,4.341,9.677    c20.483,7.796,50.771,8.638,62.842,8.638c12.071,0,42.359-0.842,62.842-8.637C322.712,113.376,324.656,109.043,323.182,105.172z"
   id="path45" />
	</g>
</g>
<g
   id="g55">
	<g
   id="g53">
		<path
   d="M309.749,76.786c-1.473-3.871-5.804-5.815-9.677-4.342c-8.369,3.186-25.668,5.243-44.072,5.243    s-35.704-2.058-44.072-5.243c-3.873-1.473-8.204,0.47-9.677,4.342c-1.474,3.872,0.47,8.205,4.341,9.678    c10.24,3.897,28.71,6.224,49.408,6.224s39.168-2.327,49.408-6.224C309.279,84.99,311.223,80.657,309.749,76.786z"
   id="path51" />
	</g>
</g>
<g
   id="g61">
	<g
   id="g59">
		<path
   d="M462.194,391.146c-13.201-23.326-31.047-42.522-53.048-57.057c-11.075-7.316-21.163-12.073-28.448-14.908    c12.66-21.485,19.936-46.505,19.936-73.197v-15.115h1.307c23.637,0,42.867-19.23,42.867-42.867    c0-23.637-19.23-42.867-42.867-42.867h-1.308v-0.094c0-0.324,0.001-0.649,0-0.973C400.325,64.577,335.561,0,255.999,0    c-79.752,0-144.635,64.883-144.635,144.635v0.5h-1.307c-23.637,0-42.867,19.23-42.867,42.867c0,23.637,19.23,42.867,42.867,42.867    h1.307v15.115c0,26.695,7.278,51.718,19.941,73.205c-10.204,3.992-27.292,12.199-44.96,27.379    c-25.123,21.586-56.216,61.979-61.676,131.838c-0.668,8.55-0.951,17.36-0.843,26.186c0.051,4.106,3.394,7.408,7.5,7.408h449.347    c4.106,0,7.449-3.302,7.5-7.407C488.714,460.732,479.973,422.563,462.194,391.146z M400.634,160.135h1.307    c15.366,0,27.867,12.501,27.867,27.867c0,15.366-12.501,27.867-27.867,27.867h-1.307V160.135z M255.999,15    c68.036,0,126.019,54.959,129.464,122.917c-0.064,0.014-0.125,0.033-0.189,0.048c-2.99,0.661-5.916,1.781-8.561,3.328    c-15.164,8.871-17.274,27.177-17.439,43.075c-0.176,16.933-0.381,34.957-5.42,51.435c-3.191,10.434-9.277,20.348-21.389,20.354    c-7.476,0.004-14.739-2.596-21.012-6.543c-0.252-0.159-0.514-0.321-0.785-0.485c-8.143-4.948-25.002-12.59-51.941-13.078    c-18.123-0.328-37.001,2.383-53.27,10.772c-8.534,4.4-15.884,9.334-25.923,9.334c-11.95,0-18.255-10.1-21.391-20.354    c-5.514-18.032-5.818-38.606-5.451-57.306c0.002-0.124,0.005-0.314,0.005-0.563c0-11.193-3.17-23.488-11.148-31.715    c-4.005-4.13-9.214-7.015-14.827-8.255c-0.063-0.014-0.123-0.033-0.187-0.047C130.041,69.544,186.77,15,255.999,15z     M111.365,215.869h-1.307v0c-15.366,0-27.867-12.501-27.867-27.867c0-15.366,12.501-27.867,27.867-27.867h1.307V215.869z     M126.364,245.985v-92.399h0.001c0.123,0.055,0.25,0.105,0.371,0.163c8.388,4.025,11.174,15.831,10.961,24.426    c-0.002,0.078-0.003,0.156-0.003,0.234c0,20.675,0.726,44.182,6.106,61.78c6.284,20.549,18.306,30.969,35.733,30.968    c10.325,0,20.309-3.467,29.024-8.862c13.989-8.66,31.262-11.269,47.443-11.269c20.873,0,34.741,4.668,42.801,8.679    c11.033,5.49,20.912,11.453,33.666,11.453c18.932,0,30.537-13.977,35.733-30.969c5.381-17.597,6.106-41.105,6.106-61.78    c0-0.062-0.001-0.148-0.003-0.212c-0.217-8.575,2.495-20.404,10.965-24.449c0.12-0.057,0.244-0.107,0.366-0.161v92.398    c0,50.22-28.705,93.86-70.569,115.379c-0.086,0.044-0.173,0.088-0.26,0.132c-59.975,30.41-135.41,8.571-169.975-48.885    C132.77,292.564,126.364,269.376,126.364,245.985z M38.831,496.999c0.049-3.536,0.164-7.054,0.345-10.539    c0.418-0.004,0.831-0.014,1.249-0.018c67.422-0.682,135.278-9.809,199.236-31.671c19.827-6.777,39.301-14.793,58.084-24.085    c3.655-1.808,5.205-6.392,3.397-10.048c-1.836-3.713-6.334-5.233-10.048-3.397c-31.132,15.4-64.305,27.182-97.972,35.633    c-30.731,7.714-62.12,12.803-93.67,15.634c-19.46,1.746-39.009,2.716-58.546,2.931c-0.171,0.002-0.343,0.001-0.514,0.003    c5.307-47.837,23.847-85.834,55.177-113.02c18.185-15.779,35.95-23.407,44.192-26.368c0.387-0.139,10.057,12.142,11.164,13.311    c26.567,28.068,64.501,44.763,103.328,45.242c0.583,0.007,1.165,0.011,1.748,0.011c39.501,0,78.066-16.657,105.177-45.359    c3.946-4.178,7.643-8.591,11.066-13.208c4.684,1.677,12.427,4.851,21.548,10.156c-0.22-0.128-10.734,11.328-11.603,12.177    c-19.685,19.214-42.185,35.485-65.919,49.323c-3.578,2.086-4.788,6.679-2.701,10.257c2.056,3.527,6.728,4.759,10.257,2.701    c3.843-2.242,7.649-4.549,11.418-6.914c39.593-24.844,62.215-48.634,71.247-59.258c31.307,22.76,65.654,66.037,66.684,146.506    H38.831z"
   id="path57" />
	</g>
</g>
<g
   id="g63">
</g>
<g
   id="g65">
</g>
<g
   id="g67">
</g>
<g
   id="g69">
</g>
<g
   id="g71">
</g>
<g
   id="g73">
</g>
<g
   id="g75">
</g>
<g
   id="g77">
</g>
<g
   id="g79">
</g>
<g
   id="g81">
</g>
<g
   id="g83">
</g>
<g
   id="g85">
</g>
<g
   id="g87">
</g>
<g
   id="g89">
</g>
<g
   id="g91">
</g>
<path
   style="fill:#a0a0a0;stroke:none;stroke-width:0.70816"
   d="m 29.610251,511.21927 c -1.241333,-0.35915 -2.95246,-1.52543 -3.802505,-2.59174 -1.514653,-1.89999 -1.537479,-2.25712 -1.142308,-17.87234 0.424981,-16.79312 1.451779,-26.33871 4.451033,-41.37884 11.388095,-57.10702 44.190912,-101.66614 92.156009,-125.18408 5.5502,-2.72134 10.09128,-5.07966 10.09128,-5.24071 0,-0.16105 -1.40383,-2.91884 -3.11961,-6.12841 -6.80871,-12.73646 -12.57124,-30.28806 -14.93609,-45.49258 -0.60578,-3.89489 -1.301,-13.6818 -1.54491,-21.74871 l -0.44347,-14.66711 -3.25597,-0.39944 c -14.95685,-1.83494 -25.601638,-7.89299 -33.001313,-18.78136 -5.220236,-7.6814 -7.078995,-13.90896 -7.078995,-23.71735 0,-9.65792 1.841053,-15.92749 6.89675,-23.48639 7.410291,-11.07931 18.174641,-17.37387 32.464858,-18.98415 l 3.95359,-0.44551 0.84242,-10.43062 C 116.6994,78.228367 151.44131,31.007825 203.59613,10.365893 230.90648,-0.44305048 263.17765,-2.4265272 291.71433,4.9499004 345.1608,18.765243 386.20896,61.93446 397.28643,115.97716 c 1.48575,7.24842 3.1491,21.51481 3.17099,27.19733 0.007,1.78212 0.25286,1.92424 4.07923,2.35678 14.42429,1.63053 25.14913,7.88408 32.5832,18.99894 5.05569,7.5589 6.89675,13.82847 6.89675,23.48639 0,9.67807 -1.84157,15.92825 -6.9384,23.54866 -7.33803,10.97126 -18.0552,17.09918 -33.14191,18.95005 l -3.25597,0.39944 -0.43081,14.66711 c -0.77958,26.54123 -5.96717,47.66596 -16.49734,67.17998 -1.71377,3.17585 -3.11593,5.93364 -3.11593,6.12842 0,0.19476 4.54108,2.58256 10.09128,5.30621 48.17467,23.64069 80.82652,67.98125 92.17514,125.17201 2.98441,15.03977 4.00675,24.5868 4.4319,41.38671 0.39424,15.57824 0.36904,15.97649 -1.12996,17.85666 -0.84326,1.05767 -2.71372,2.25092 -4.15659,2.65165 -3.40676,0.94617 -449.165217,0.90259 -452.437759,-0.0443 z M 473.15586,487.33492 c -2.39563,-50.18435 -18.58514,-91.34242 -47.46218,-120.66164 -5.76196,-5.85017 -17.77748,-16.13386 -18.85092,-16.13386 -0.35739,0 -5.04571,4.49605 -10.41848,9.99124 -18.66001,19.08514 -40.8244,36.40479 -66.68961,52.11245 -8.57387,5.20682 -10.84165,5.58983 -14.37965,2.42863 -1.74223,-1.55667 -2.27729,-2.6166 -2.27729,-4.51118 0,-3.48101 1.71178,-5.70393 6.45131,-8.37768 12.64753,-7.13495 32.74698,-21.31919 46.94399,-33.1285 9.29599,-7.73256 27.78301,-26.1734 27.19414,-27.12621 -0.49714,-0.80439 -11.38969,-6.28995 -17.08547,-8.60435 l -4.32202,-1.7562 -6.09142,7.32784 c -26.43104,31.79586 -68.18837,51.26474 -110.01913,51.29514 -41.56979,0.0302 -83.2315,-19.12655 -109.05475,-50.14521 -7.90029,-9.48977 -6.73812,-9.27935 -18.90158,-3.42229 -23.14585,11.14538 -43.521303,28.66897 -58.586729,50.38658 -15.073137,21.72874 -24.948941,49.18169 -29.232618,81.26141 l -0.44917,3.36376 7.656116,-0.004 c 17.010506,-0.0105 51.194868,-2.3693 72.452801,-4.99973 59.25301,-7.3319 112.95952,-22.055 160.38514,-43.96798 7.42967,-3.43287 12.93099,-5.5564 14.39473,-5.5564 3.1367,0 6.5092,3.25667 6.5092,6.28565 0,5.18294 -1.50414,6.27996 -19.82849,14.4615 -67.34197,30.06715 -148.00317,46.68568 -233.69295,48.14749 l -8.852006,0.151 -0.206828,5.48825 -0.206829,5.48824 H 256.07927 473.62338 Z M 275.05773,374.25116 c 28.78931,-4.09179 53.74032,-16.93334 74.46112,-38.32295 21.71063,-22.41139 33.9009,-50.07008 36.07021,-81.84025 0.3803,-5.56968 0.69618,-30.44204 0.70196,-55.27192 0.0116,-50.05897 0.31529,-47.23488 -4.61338,-42.90745 -3.218,2.82544 -5.67092,7.63115 -6.65202,13.0325 -0.42001,2.31227 -1.08263,13.12696 -1.4725,24.03263 -0.38987,10.90567 -1.19618,23.49322 -1.79179,27.97234 -4.32493,32.52407 -17.92049,49.57123 -39.53437,49.57123 -8.00855,0 -14.16927,-1.86958 -28.07205,-8.51897 -18.79223,-8.98789 -27.50053,-10.93221 -48.86307,-10.90975 -21.09779,0.0222 -29.56206,2.00683 -47.60771,11.16272 -13.14389,6.66886 -18.55693,8.266 -28.01515,8.266 -18.00073,0 -29.7483,-10.53459 -35.92196,-32.21288 -3.42294,-12.01935 -4.96257,-25.98317 -5.66177,-51.35005 -0.23082,-8.374 -0.76586,-16.81881 -1.18898,-18.76625 -1.08065,-4.97376 -3.58859,-9.65837 -6.57391,-12.27952 -4.92867,-4.32743 -4.62502,-7.15152 -4.61338,42.90745 0.0141,60.70128 0.67646,68.89729 7.13924,88.34302 15.48045,46.57879 55.8148,79.78106 105.78598,87.08049 8.80202,1.28574 27.4172,1.29167 36.42353,0.0116 z M 187.54558,255.29255 c 2.24152,-0.58385 9.2396,-3.60248 15.55127,-6.70806 19.16686,-9.43084 29.35793,-11.6783 52.90315,-11.66687 25.53576,0.0124 36.00628,2.64892 58.77732,14.80035 12.93101,6.90045 25.66692,6.01332 32.55662,-2.26775 7.69214,-9.24558 10.98665,-24.81267 12.03844,-56.8836 0.70065,-21.36411 1.55993,-27.95516 4.62935,-35.50905 3.79336,-9.33551 10.00479,-14.96621 20.4528,-18.54059 1.22345,-0.41856 1.29794,-0.96404 0.85813,-6.28434 -1.4881,-18.00144 -9.12163,-40.243555 -19.30906,-56.261584 -21.29767,-33.487008 -55.58408,-55.189875 -95.48631,-60.44164 -9.33518,-1.228657 -29.18218,-0.491897 -38.91007,1.444417 -40.84005,8.129125 -74.91257,34.441616 -92.79369,71.659882 -6.58334,13.702765 -10.93621,29.381105 -12.12936,43.688065 -0.43639,5.2327 -0.3607,5.7766 0.8613,6.1891 9.27596,3.13117 15.83607,8.74159 19.7597,16.89914 4.04755,8.4152 4.66644,12.27368 5.00291,31.19026 0.34208,19.23225 1.22632,30.28985 3.19017,39.89346 4.97661,24.33662 14.9095,33.26264 32.04733,28.79881 z m -76.01031,-67.37291 v -28.06929 l -4.56487,0.36642 c -18.151383,1.45702 -29.664813,20.58906 -23.042205,38.28957 3.542784,9.46894 14.427522,17.29699 24.243315,17.43522 l 3.36376,0.0474 z m 302.71194,25.30261 c 21.0546,-10.36514 20.94219,-40.48013 -0.18856,-50.51834 -2.93531,-1.39442 -6.02752,-2.2462 -9.02905,-2.48714 l -4.56487,-0.36642 v 28.16625 28.16624 l 4.64107,-0.37254 c 3.2017,-0.257 6.03679,-1.05965 9.14141,-2.58805 z"
   id="path1102" /><path
   style="fill:#a0a0a0;stroke:none;stroke-width:0.70816"
   d="m 243.25311,341.29796 c -18.75602,-2.33345 -32.74728,-7.77097 -39.79041,-15.46405 -15.0935,-16.48631 -10.32481,-41.59575 9.78786,-51.53785 5.41453,-2.67651 5.61602,-2.71651 13.6771,-2.71503 7.33142,10e-4 8.65037,0.20215 12.69264,1.93238 9.54032,4.0836 23.21908,4.0836 32.75939,0 4.04228,-1.73023 5.36123,-1.93104 12.69265,-1.93238 8.02917,-10e-4 8.28176,0.048 13.55638,2.65537 9.96937,4.92808 16.54502,13.67632 18.39681,24.47511 2.25671,13.16017 -4.86681,27.28206 -16.97018,33.64221 -6.52984,3.43133 -16.11494,6.56089 -24.24631,7.91649 -8.25193,1.37569 -25.40635,1.91724 -32.55593,1.02775 z m 30.52063,-15.21764 c 19.97359,-3.41475 29.24457,-10.48559 29.21188,-22.27949 -0.0281,-10.14228 -6.79299,-17.44873 -16.86797,-18.21835 -3.54926,-0.27112 -5.27265,0.0468 -10.21263,1.88373 -12.28598,4.56866 -27.52406,4.56866 -39.81005,0 -4.93997,-1.83697 -6.66336,-2.15485 -10.21262,-1.88373 -5.14067,0.39269 -9.22104,2.34502 -12.35057,5.90936 -3.2974,3.75552 -4.50074,7.02454 -4.53102,12.30899 -0.0433,7.54856 3.60052,13.00729 11.24192,16.84148 6.24845,3.13525 17.50305,5.87123 27.96756,6.79888 5.34433,0.47377 19.12268,-0.25972 25.5635,-1.36087 z"
   id="path1141" /><path
   style="fill:#a0a0a0;stroke:none;stroke-width:0.70816"
   d="m 240.06639,314.13289 c -11.53287,-2.2176 -14.13102,-3.87752 -14.13102,-9.02813 0,-2.35961 0.42118,-3.24152 2.38688,-4.99787 2.65147,-2.36909 2.79374,-2.37181 13.86862,-0.26556 3.11591,0.5926 9.33002,1.07745 13.80913,1.07745 4.47911,0 10.69322,-0.48485 13.80913,-1.07745 11.49599,-2.18634 11.33793,-2.19413 14.23369,0.70163 2.30065,2.30065 2.54057,2.87521 2.16558,5.18604 -1.04636,6.44794 -8.0088,8.70375 -28.08392,9.09908 -9.04242,0.17807 -14.63664,-0.0373 -18.05809,-0.69519 z"
   id="path1180" /><path
   style="fill:#a0a0a0;stroke:none;stroke-width:0.70816"
   d="m 198.7418,202.48435 c -6.50845,-2.60679 -10.33495,-9.79773 -8.61417,-16.18819 1.9519,-7.24883 9.80171,-11.90501 16.86434,-10.00324 7.58079,2.04129 12.08476,10.8619 9.30761,18.22806 -1.01938,2.70384 -4.76943,6.55164 -7.54654,7.74327 -2.58143,1.10766 -7.52395,1.21633 -10.01124,0.2201 z"
   id="path1219" /><path
   style="fill:#a0a0a0;stroke:none;stroke-width:0.70816"
   d="m 176.52679,171.68727 c -6.32024,-3.42987 -3.85214,-11.26052 5.58363,-17.71545 6.29507,-4.3064 11.46156,-6.0681 19.04245,-6.49322 11.53099,-0.64663 20.01174,2.49353 28.09536,10.40284 4.21385,4.12299 4.7988,5.01437 4.7988,7.31278 0,3.91874 -3.17182,7.21066 -6.94758,7.21066 -2.46129,0 -3.37534,-0.50295 -6.79945,-3.74133 -5.54158,-5.241 -9.29631,-6.80985 -16.34979,-6.8315 -7.19085,-0.0221 -11.54477,1.59001 -16.28563,6.02993 -5.5083,5.15863 -7.4512,5.82592 -11.13779,3.82529 z"
   id="path1258" /><path
   style="fill:#a0a0a0;stroke:none;stroke-width:0.70816"
   d="m 282.47679,172.1239 c -2.4515,-1.03445 -4.52382,-4.24749 -4.52382,-7.01401 0,-2.19426 0.64196,-3.16124 4.7988,-7.22845 4.9999,-4.89208 11.21745,-8.44715 17.17387,-9.81967 7.54034,-1.73751 18.26205,-0.51186 24.96456,2.8538 4.41296,2.21597 10.32502,6.93403 12.26351,9.78677 3.05172,4.49102 1.94253,9.52065 -2.50595,11.36327 -3.09466,1.28185 -5.24266,0.45578 -9.86534,-3.79398 -5.32134,-4.89206 -9.40089,-6.46208 -16.73263,-6.43958 -7.00036,0.0215 -10.8086,1.59088 -16.17422,6.66546 -3.88752,3.67665 -6.70418,4.76342 -9.39878,3.62639 z"
   id="path1297" /><path
   style="fill:#a0a0a0;stroke:none;stroke-width:0.70816"
   d="m 303.09267,202.27447 c -2.6905,-1.25373 -6.41426,-5.15946 -7.39225,-7.75349 -1.17216,-3.10907 -0.88793,-8.06396 0.63367,-11.04656 4.58708,-8.9914 15.80373,-10.27675 22.55727,-2.5849 7.45783,8.494 1.78428,21.49246 -9.66633,22.14613 -2.41517,0.13788 -4.85214,-0.16461 -6.13236,-0.76118 z"
   id="path1336" /><path
   style="fill:#a0a0a0;stroke:none;stroke-width:0.70816"
   d="m 239.71231,122.77978 c -17.23192,-1.24477 -33.02831,-3.86251 -42.72407,-7.08013 -4.47598,-1.48539 -5.80725,-2.26938 -6.90191,-4.06461 -1.83816,-3.01452 -1.70861,-5.59803 0.40674,-8.11199 2.62346,-3.11781 4.37787,-3.23908 12.55011,-0.86753 14.60193,4.23743 29.36893,5.87594 52.95682,5.87594 23.58789,0 38.35489,-1.63851 52.95683,-5.87594 8.17223,-2.37155 9.92663,-2.25028 12.5501,0.86753 2.11535,2.51396 2.2449,5.09747 0.40675,8.11199 -3.54731,5.81747 -30.67926,10.73927 -61.66472,11.1861 -9.15297,0.132 -18.39446,0.11338 -20.53665,-0.0414 z"
   id="path1375" /><path
   style="fill:#a0a0a0;stroke:none;stroke-width:0.70816"
   d="m 232.98479,91.286862 c -8.59352,-0.888284 -18.12067,-2.613484 -23.34697,-4.227723 -3.74253,-1.155952 -4.97316,-1.908175 -6.07317,-3.71224 -2.07566,-3.404179 -1.78225,-5.901637 1.0229,-8.706788 2.78896,-2.788954 4.05814,-2.915538 10.13385,-1.010719 9.18555,2.879796 19.79006,3.875386 41.2786,3.875386 21.48854,0 32.09305,-0.99559 41.2786,-3.875386 6.07571,-1.904819 7.34489,-1.778235 10.13385,1.010719 2.80515,2.805151 3.09856,5.302609 1.0229,8.706788 -1.10648,1.814674 -2.33099,2.556397 -6.18616,3.747137 -5.72093,1.767016 -14.14867,3.243886 -24.19421,4.239778 -8.48516,0.841199 -36.76296,0.811741 -45.07019,-0.04695 z"
   id="path1414" /><path
   style="fill:#ffffff;stroke-width:0.70816"
   d="m 29.68514,510.53051 c -1.200144,-0.34848 -2.757795,-1.26975 -3.461447,-2.04728 -1.185533,-1.31 -1.249509,-2.70018 -0.872267,-18.95399 0.415825,-17.91617 1.18781,-25.15589 4.345232,-40.74986 7.495268,-37.01785 24.116783,-68.94746 48.560011,-93.28284 12.613332,-12.55769 25.111651,-21.52234 42.376381,-30.39524 5.57917,-2.86731 10.29655,-5.61098 10.48306,-6.09702 0.18651,-0.48604 -1.27732,-4.10485 -3.25297,-8.04178 -10.26159,-20.4486 -15.42759,-41.91795 -15.69598,-65.23083 -0.0426,-3.70014 -0.28187,-8.63956 -0.53171,-10.97649 -0.41317,-3.86456 -0.61443,-4.26689 -2.22466,-4.4472 -11.472415,-1.28456 -21.920917,-5.85267 -28.466436,-12.44558 -8.336878,-8.39725 -11.895055,-16.33808 -12.421538,-27.72132 -0.387196,-8.37167 0.874607,-14.80032 4.088519,-20.83024 7.107008,-13.33411 19.020102,-21.41067 34.320885,-23.26808 l 4.24897,-0.51579 0.49922,-3.18672 c 0.27458,-1.7527 1.01087,-7.78933 1.63621,-13.41474 4.32938,-38.945775 24.60672,-74.932432 55.42362,-98.361514 72.24313,-54.924099 175.2298,-30.80787972 215.989,50.577784 8.59051,17.153041 13.15609,34.29666 14.93455,56.07879 0.32661,4.00022 0.77967,7.45895 1.0068,7.68607 0.22712,0.22713 2.97336,0.85728 6.10276,1.40035 3.1294,0.54306 7.81085,1.78574 10.40323,2.76151 12.26815,4.61772 22.46425,16.26475 25.48084,29.10681 1.48569,6.3248 1.06152,17.39709 -0.88231,23.03186 -3.57919,10.37525 -11.44359,19.3641 -20.88613,23.87242 -5.61466,2.6807 -14.0393,5.07255 -17.86666,5.07255 -0.97122,0 -1.93117,0.26749 -2.13321,0.59441 -0.20205,0.32692 -0.69473,7.19398 -1.09484,15.26013 -1.36639,27.54621 -5.33373,44.35783 -15.03496,63.71054 -2.3175,4.62313 -4.06995,8.78014 -3.89433,9.2378 0.17562,0.45766 4.89641,3.20797 10.49065,6.11178 27.849,14.45571 47.17135,31.60422 63.74522,56.57365 13.40369,20.19338 22.29093,42.41863 27.49097,68.74958 3.20983,16.2533 3.86811,23.19479 3.89208,41.04123 l 0.0223,16.60969 -2.40625,1.62544 -2.40625,1.62544 -224.91324,-0.0639 C 126.7976,511.19105 30.946217,510.89667 29.68514,510.53051 Z m 444.04565,-19.59829 c -1.27247,-20.1714 -3.18468,-34.29819 -6.44639,-47.62379 -5.94548,-24.28995 -15.53849,-44.87559 -29.53557,-63.38036 -7.44242,-9.83922 -27.93031,-29.38866 -30.79943,-29.38866 -0.56623,0 -6.32088,5.17843 -12.7881,11.50761 -17.70485,17.32696 -32.26408,29.09203 -52.82797,42.68943 -18.55757,12.27076 -21.96255,13.53166 -25.90233,9.59187 -4.48231,-4.4823 -2.54357,-7.48534 9.75592,-15.1116 10.95447,-6.79228 22.0984,-14.61844 35.02856,-24.59985 8.94316,-6.90365 33.88222,-30.78181 33.8781,-32.43692 -0.002,-0.92217 -17.14228,-9.59408 -20.58673,-10.41578 -1.55426,-0.37078 -2.2035,0.061 -4.47286,2.97435 -22.6856,29.12366 -58.82067,49.39406 -96.32867,54.03673 -14.27734,1.76722 -34.5975,0.61518 -48.84859,-2.76945 -30.41187,-7.2228 -55.61207,-22.65147 -77.88096,-47.68215 -4.49912,-5.05711 -5.88466,-6.19641 -7.53563,-6.19641 -2.79204,0 -19.05632,8.26768 -27.8121,14.13783 -38.773996,25.99527 -61.8488,64.66243 -69.849456,117.04889 l -1.270797,8.32089 h 12.125412 c 42.359978,0 100.039961,-7.52482 143.819081,-18.76237 31.86633,-8.17968 52.77389,-15.58114 88.87413,-31.46223 9.24472,-4.06689 11.98956,-4.4173 14.54948,-1.85738 2.33021,2.33021 2.40129,6.60278 0.14485,8.7065 -5.54303,5.16786 -47.63673,22.30334 -75.2335,30.62601 -54.03509,16.29598 -107.1062,24.6164 -169.790007,26.61949 l -15.40249,0.49219 v 4.44562 c 0,2.44509 -0.19343,4.9497 -0.429845,5.56578 -0.39139,1.01995 19.090645,1.12016 217.763472,1.12016 h 218.1933 z M 283.26417,373.23623 c 38.95678,-8.43545 72.06989,-34.23112 89.58663,-69.78949 6.97184,-14.15257 11.06324,-28.80675 12.72424,-45.57433 0.77168,-7.78999 1.04031,-101.14343 0.29663,-103.08144 -1.58021,-4.11796 -9.05914,4.42739 -10.82149,12.36451 -0.38554,1.73641 -1.21141,13.35461 -1.83526,25.81824 -0.62385,12.46362 -1.61528,25.94695 -2.20316,29.96296 -2.38625,16.30114 -8.03357,29.94965 -15.47404,37.39777 -7.01843,7.02566 -13.29347,9.55871 -23.63874,9.54226 -7.71329,-0.0122 -12.44018,-1.41138 -27.01183,-7.99532 -21.21396,-9.58514 -26.7705,-10.80433 -49.24123,-10.80433 -22.90358,0 -27.84765,1.11668 -48.48355,10.95068 -13.92152,6.63426 -17.96803,7.81087 -26.93554,7.83205 -18.06755,0.0426 -29.36397,-9.62617 -35.65651,-30.51913 -3.66066,-12.1544 -4.96633,-22.98213 -6.14626,-50.96999 -0.41872,-9.93195 -1.07944,-19.47878 -1.46828,-21.21519 -1.78074,-7.95221 -9.24827,-16.47981 -10.82746,-12.36451 -0.73457,1.91425 -0.4676,91.46288 0.30278,101.56311 0.9153,12.00005 2.70528,20.84786 6.39146,31.59279 16.1831,47.17242 55.85235,79.32744 107.24383,86.92948 1.16846,0.17285 9.77261,0.21955 19.12033,0.10378 14.22894,-0.17622 18.14873,-0.46013 24.07745,-1.7439 z M 189.31092,254.97885 c 2.24527,-0.75637 7.89164,-3.17346 12.54751,-5.37131 22.95386,-10.83557 33.59444,-12.98279 60.16093,-12.1402 20.44288,0.64835 29.4486,2.95592 48.17096,12.343 4.68268,2.34782 10.23762,4.78064 12.34429,5.40625 4.48613,1.33224 12.95515,1.49179 16.39152,0.3088 6.86027,-2.36168 11.91078,-8.44856 15.0643,-18.15548 3.36774,-10.3663 4.36383,-18.2025 5.73821,-45.14214 0.57731,-11.31594 1.53244,-23.09777 2.12252,-26.18184 2.3608,-12.33877 8.59029,-20.81925 18.52591,-25.22011 l 5.37423,-2.38046 -0.3738,-6.72752 c -0.73057,-13.14835 -5.62058,-29.78853 -13.30789,-45.285252 -17.62327,-35.526496 -50.57659,-60.643103 -91.284,-69.575527 -6.66982,-1.463558 -9.25918,-1.630642 -25.13969,-1.622193 -15.78073,0.0084 -18.53856,0.187038 -25.3861,1.644421 -35.1478,7.480613 -66.28398,29.115449 -84.79811,58.921573 -10.49312,16.893004 -17.91545,38.903568 -18.85614,55.916978 l -0.37198,6.72752 4.77106,2.06027 c 6.35435,2.74397 12.17244,8.18167 15.47169,14.46015 4.13382,7.86669 4.69835,11.19395 5.42741,31.98857 0.74046,21.11973 1.08663,25.95586 2.50917,35.05394 2.74965,17.58589 8.75551,29.27841 16.9619,33.02236 3.92823,1.79215 12.53621,1.76729 17.9361,-0.0518 z M 410.75144,214.8903 c 1.95755,-0.53525 5.29424,-2.18533 7.41484,-3.66684 16.13513,-11.27249 15.98232,-35.79624 -0.29135,-46.75937 -3.58647,-2.41611 -8.37568,-4.01779 -14.04644,-4.69763 l -3.36377,-0.40327 v 28.6534 28.65341 l 3.36377,-0.40327 c 1.85006,-0.2218 4.9654,-0.84119 6.92295,-1.37643 z M 111.53527,187.69588 v -28.29305 l -3.71784,0.38041 c -10.979239,1.1234 -18.790931,6.56706 -23.323695,16.25335 -3.459542,7.39287 -3.476152,17.80889 -0.03943,24.72689 4.230105,8.51506 14.234841,15.12096 23.009045,15.19233 l 4.07192,0.0331 z"
   id="path1142" /><path
   style="fill:#ffffff;stroke-width:0.70816"
   d="m 237.14554,340.00499 c -15.25361,-2.79207 -25.6369,-7.18215 -32.27562,-13.6462 -10.20585,-9.93733 -12.61757,-24.91046 -6.07726,-37.73052 2.55828,-5.01466 8.78969,-10.80995 14.92574,-13.88114 5.44995,-2.72778 5.84131,-2.81352 12.8421,-2.81352 6.29201,0 8.03498,0.28734 13.55008,2.23388 5.90326,2.08353 6.97269,2.23388 15.88942,2.23388 8.91672,0 9.98615,-0.15035 15.88941,-2.23388 5.5151,-1.94654 7.25807,-2.23388 13.55008,-2.23388 7.00079,0 7.39215,0.0857 12.8421,2.81352 6.13606,3.07119 12.36746,8.86648 14.92574,13.88114 6.53597,12.81154 4.13041,27.7747 -6.06574,37.73052 -6.10297,5.95911 -16.67296,10.60783 -30.09007,13.23372 -9.30122,1.82036 -30.98971,2.04454 -39.90598,0.41248 z m 30.56827,-12.90276 c 26.09941,-2.62675 38.27076,-12.2686 35.05306,-27.7682 -1.02704,-4.94724 -3.95816,-9.03299 -8.31932,-11.59651 -4.85641,-2.85463 -12.18492,-2.82431 -21.09762,0.0873 -5.9395,1.94031 -7.1208,2.08207 -17.34993,2.08207 -10.22914,0 -11.41044,-0.14176 -17.34994,-2.08207 -8.83596,-2.88653 -16.24833,-2.93781 -20.99868,-0.14527 -10.52541,6.18746 -12.13636,21.52867 -3.09435,29.46766 9.39369,8.24776 30.6209,12.22313 53.15678,9.95503 z"
   id="path1181" /><path
   style="fill:#ffffff;stroke-width:0.70816"
   d="m 239.35823,313.61103 c -6.06261,-1.11944 -10.19341,-2.76404 -11.67568,-4.64843 -2.06534,-2.62566 -1.82909,-5.57508 0.64471,-8.04889 2.40898,-2.40898 4.02143,-2.54092 12.44729,-1.01854 7.27839,1.31506 23.1725,1.31506 30.45089,0 8.76735,-1.58408 10.53459,-1.42701 12.68394,1.12735 2.46284,2.92692 2.40054,5.86087 -0.17923,8.44063 -2.24374,2.24374 -5.31335,3.24699 -12.98101,4.24259 -6.47954,0.84133 -26.65114,0.78047 -31.39091,-0.0947 z"
   id="path1220" /><path
   style="fill:#ffffff;stroke-width:0.70816"
   d="m 197.21163,201.22133 c -5.87352,-3.12431 -8.66598,-11.20997 -5.80125,-16.7977 6.06191,-11.8239 21.5068,-10.19183 24.96143,2.63768 1.36629,5.074 -1.94705,11.74026 -7.18036,14.44651 -2.81056,1.45339 -8.9866,1.3057 -11.97982,-0.28649 z"
   id="path1259" /><path
   style="fill:#ffffff;stroke-width:0.70816"
   d="m 175.52164,170.40436 c -4.30805,-3.70563 -1.43648,-10.19893 7.09716,-16.04837 6.57368,-4.50597 10.22538,-5.73146 18.38795,-6.17091 11.90091,-0.64071 19.5413,2.12803 27.87672,10.102 3.94233,3.77138 4.45539,4.57275 4.45539,6.95904 0,2.03651 -0.50685,3.2037 -2.07001,4.76686 -3.15975,3.15976 -5.51034,2.80805 -10.45863,-1.56486 -6.22056,-5.49724 -9.16682,-6.6324 -17.2141,-6.6324 -8.06762,0 -11.02397,1.1304 -17.28475,6.60907 -4.86124,4.25396 -7.5682,4.7506 -10.78973,1.97957 z"
   id="path1298" /><path
   style="fill:#ffffff;stroke-width:0.70816"
   d="m 280.73114,170.01298 c -1.56316,-1.56316 -2.07001,-2.73035 -2.07001,-4.76686 0,-2.39501 0.51441,-3.18898 4.59618,-7.094 10.58116,-10.12297 24.89789,-13.09219 38.60881,-8.00728 4.78711,1.77537 12.84808,7.69956 14.82153,10.89268 4.17706,6.75861 -1.57829,13.95453 -7.84008,9.80246 -1.02485,-0.67956 -3.51537,-2.58375 -5.53451,-4.23154 -4.21482,-3.43967 -9.16208,-5.14786 -14.90919,-5.14786 -5.74712,0 -10.69437,1.70819 -14.90919,5.14786 -7.68907,6.27495 -9.42901,6.73907 -12.76354,3.40454 z"
   id="path1337" /><path
   style="fill:#ffffff;stroke-width:0.70816"
   d="m 303.09266,201.7094 c -2.256,-1.24468 -5.35175,-4.32231 -6.43666,-6.39899 -1.43157,-2.74024 -1.26743,-8.93992 0.31481,-11.89016 4.47468,-8.34354 15.43258,-9.45208 21.55145,-2.18022 7.37963,8.7702 1.16183,21.34431 -10.51902,21.27232 -1.92184,-0.0118 -4.1316,-0.37317 -4.91058,-0.80295 z"
   id="path1376" /><path
   style="fill:#ffffff;stroke-width:0.70816"
   d="m 228.38174,121.42405 c -20.25586,-2.56501 -34.23261,-6.06896 -37.26661,-9.3427 -2.41585,-2.60674 -2.26113,-6.09548 0.38779,-8.7444 1.13851,-1.13851 2.65912,-2.07001 3.37914,-2.07001 0.72002,0 4.96694,0.94259 9.4376,2.09465 12.06546,3.10918 19.9378,4.20769 36.63193,5.11164 11.34571,0.61435 18.7511,0.61435 30.09681,0 16.69414,-0.90395 24.56647,-2.00246 36.63193,-5.11164 4.47066,-1.15206 8.71759,-2.09465 9.43761,-2.09465 0.72001,0 2.24062,0.9315 3.37913,2.07001 2.69762,2.69762 2.81899,6.19396 0.30238,8.71057 -3.57741,3.57741 -15.12783,6.63406 -33.04173,8.74401 -13.60824,1.60281 -48.75671,1.97724 -59.37598,0.63252 z"
   id="path1415" /><path
   style="fill:#ffffff;stroke-width:0.70816"
   d="m 231.92254,90.888867 c -5.48608,-0.662115 -18.28539,-3.104372 -21.85767,-4.170696 -7.07391,-2.111563 -9.39101,-7.423532 -5.1069,-11.707639 2.45794,-2.457936 4.27618,-2.58538 10.69537,-0.749658 9.44796,2.701874 16.45263,3.269499 40.34666,3.269499 23.89402,0 30.89869,-0.567625 40.34665,-3.269499 6.41919,-1.835722 8.23744,-1.708278 10.69537,0.749658 4.28275,4.28275 1.97067,9.58727 -5.1069,11.716581 -11.23798,3.380981 -18.38359,4.084143 -43.45656,4.276333 -13.2426,0.101507 -25.19281,0.04995 -26.55602,-0.114579 z"
   id="path1454" /></svg>
