<svg height='100px' width='100px'  fill="#ffffff" xmlns:x="http://ns.adobe.com/Extensibility/1.0/" xmlns:i="http://ns.adobe.com/AdobeIllustrator/10.0/" xmlns:graph="http://ns.adobe.com/Graphs/1.0/" xmlns="http://www.w3.org/2000/svg" xmlns:xlink="http://www.w3.org/1999/xlink" version="1.1" x="0px" y="0px" viewBox="0 0 100 100" style="enable-background:new 0 0 100 100;" xml:space="preserve"><g><g i:extraneous="self"><g><path d="M44.6,31.3c-2.2-0.8-4.5,0.1-5.7,2.1l0.4-2.8c0.4-2.5-1.2-4.8-3.7-5.3c-1.2-0.3-2.5,0-3.5,0.7c-1,0.7-1.8,1.7-2,3     l-0.6,2.8L29.3,26c-0.1-2.5-2.1-4.5-4.7-4.5c-2.6,0-4.7,2.1-4.7,4.7v5.4l-0.8-3.4c-0.6-2.4-3-3.9-5.5-3.4c-2.5,0.5-4.1,3-3.6,5.5     l3.3,15.4l-1.7-2.9c-1-1.7-2.9-2.5-4.8-2.3c-1.4,0.2-2.7,1.1-3.4,2.3C2.6,44.2,2.5,45.7,3,47l2.1,5.3c2.1,5.3,5.2,13.3,12,17.3     v7.5c0,0.7,0.6,1.4,1.4,1.4c0.7,0,1.4-0.6,1.4-1.4v-8.3c0-0.5-0.3-1-0.7-1.2c-6.4-3.4-9.5-11.2-11.5-16.3L5.6,46     c-0.2-0.6-0.2-1.2,0.1-1.8c0.3-0.5,0.8-0.9,1.5-1c0.8-0.1,1.7,0.3,2.1,1l2.8,4.6c0.8,1.3,1.7,2.4,2.8,3.3     c0.2,0.2,0.5,0.3,0.8,0.3c6.3,0.1,7.5,6.5,7.6,6.7c0.1,0.7,0.8,1.2,1.6,1.1c0.7-0.1,1.2-0.8,1.1-1.6c-0.5-2.8-3-8.1-9-8.9     l-4.3-20.1c-0.2-1.1,0.5-2.1,1.5-2.3c1-0.2,2.1,0.4,2.3,1.4L20,43.1c0.2,0.7,0.8,1.1,1.5,1c0.7-0.1,1.2-0.7,1.2-1.3V26.2     c0-1.1,0.9-2,2-2c1.1,0,1.9,0.8,2,1.9l0.6,17.2c0,0.7,0.6,1.2,1.2,1.3c0.7,0,1.3-0.4,1.4-1.1l2.8-14.1c0.1-0.5,0.4-1,0.9-1.2     c0.4-0.3,1-0.4,1.5-0.3c1,0.2,1.7,1.2,1.5,2.2l-2.2,14.4c-0.1,0.7,0.3,1.3,1,1.5c0.7,0.2,1.4-0.2,1.6-0.8l4.1-10.4     c0.4-1,1.5-1.4,2.5-1.1c0.5,0.2,0.9,0.5,1.1,1c0.2,0.5,0.2,1,0.1,1.5l-2.5,6.8c-0.6,1.8-1.2,3.7-1.7,6.1     c-0.3,1.3-0.3,3.1-0.3,5.1c0,5.2,0,11.7-4.7,13.1c-0.6,0.2-1,0.7-1,1.3v8.3c0,0.7,0.6,1.4,1.4,1.4c0.7,0,1.4-0.6,1.4-1.4v-7.4     c5.7-2.4,5.7-9.9,5.7-15.4c0-1.8,0-3.5,0.2-4.6c0.5-2.2,1-4,1.6-5.7l2.5-6.8c0.4-1.2,0.4-2.4-0.2-3.6     C46.7,32.6,45.8,31.7,44.6,31.3z"></path><path d="M96.7,42.9c-0.7-1.3-2-2.1-3.4-2.3c-1.9-0.3-3.8,0.6-4.8,2.3l-1.7,2.9L90,30.3c0.5-2.5-1.1-5-3.6-5.5     c-2.5-0.5-4.9,1-5.5,3.4L80,31.6v-5.4c0-2.6-2.1-4.7-4.7-4.7c-2.5,0-4.6,2-4.7,4.5l-0.2,5.7l-0.6-2.8c-0.3-1.2-1-2.3-2-3     c-1-0.7-2.3-0.9-3.5-0.7c-2.5,0.5-4.1,2.9-3.7,5.3l0.4,2.8c-1.1-2-3.5-2.9-5.7-2.1c-1.2,0.4-2.2,1.3-2.7,2.4s-0.6,2.4-0.2,3.6     l2.5,6.8c0.6,1.6,1.1,3.4,1.6,5.7c0.2,1.1,0.2,2.8,0.2,4.6c0,5.5,0,13,5.7,15.4v7.4c0,0.7,0.6,1.4,1.4,1.4c0.7,0,1.4-0.6,1.4-1.4     v-8.3c0-0.6-0.4-1.1-1-1.3c-4.8-1.4-4.7-7.9-4.7-13.1c0-2,0-3.8-0.3-5.1c-0.5-2.4-1-4.3-1.7-6.1l-2.5-6.8c-0.2-0.5-0.2-1,0.1-1.5     c0.2-0.5,0.6-0.8,1.1-1c1-0.4,2.1,0.1,2.5,1.1l4.1,10.4c0.3,0.6,0.9,1,1.6,0.8c0.7-0.2,1.1-0.8,1-1.5l-2.2-14.4     c-0.2-1,0.5-2,1.5-2.2c0.6-0.1,1.1,0,1.5,0.3c0.4,0.3,0.7,0.7,0.9,1.2l2.8,14.1c0.1,0.7,0.7,1.1,1.4,1.1c0.7-0.1,1.2-0.6,1.2-1.3     l0.6-17.2c0-1.1,0.9-1.9,2-1.9c1.1,0,2,0.9,2,2v16.6c0,0.7,0.5,1.3,1.2,1.3c0.7,0.1,1.3-0.4,1.5-1l3.5-14.3     c0.3-1,1.3-1.6,2.3-1.4c1.1,0.2,1.8,1.3,1.5,2.3L83,49.8c-5.9,0.8-8.5,6-9,8.9c-0.1,0.7,0.4,1.4,1.1,1.6c0.7,0.1,1.4-0.4,1.6-1.1     c0-0.3,1.3-6.6,7.6-6.7c0.3,0,0.6-0.1,0.8-0.3c1.1-0.9,2.1-2.1,2.8-3.3l2.8-4.6c0.4-0.7,1.2-1.1,2.1-1c0.6,0.1,1.2,0.5,1.5,1     c0.3,0.5,0.4,1.2,0.1,1.8l-2.1,5.3c-2,5.1-5.1,12.9-11.5,16.3c-0.4,0.2-0.7,0.7-0.7,1.2v8.3c0,0.7,0.6,1.4,1.4,1.4     c0.7,0,1.4-0.6,1.4-1.4v-7.5c6.8-4,9.9-12,12-17.3L97,47C97.5,45.7,97.4,44.2,96.7,42.9z"></path></g></g></g></svg>